<?xml version="1.0" encoding="utf-8"?>
<!-- Generator: Adobe Illustrator 15.1.0, SVG Export Plug-In . SVG Version: 6.00 Build 0)  -->
<!DOCTYPE svg PUBLIC "-//W3C//DTD SVG 1.1//EN" "http://www.w3.org/Graphics/SVG/1.1/DTD/svg11.dtd">
<svg version="1.1" id="Calque_1" xmlns="http://www.w3.org/2000/svg" xmlns:xlink="http://www.w3.org/1999/xlink" x="0px" y="0px"
	 width="208.8px" height="264.96px" viewBox="0 0 208.8 264.96" enable-background="new 0 0 208.8 264.96" xml:space="preserve">
<g id="cover-amap-hn_xA0_Image_1_" display="none">
	
		<image display="inline" overflow="visible" enable-background="new    " width="1750" height="2217" id="cover-amap-hn_xA0_Image" xlink:href="B531710C.jpeg"  transform="matrix(0.1193 0 0 0.1195 -4.882812e-04 0)">
	</image>
</g>
<g id="Calque_2">
	<path fill="#EC392E" stroke="#000000" stroke-width="2" stroke-miterlimit="10" d="M62.72,122.482c0,0-8.167-1.163-9.167-1.165
		s-2.833,16.831,9.167,17.499c0,0-5,17.5,6.167,20.334c0,0,7.5,15.166,23,12.832c15.5-2.332,51-3.832,51-3.832
		s23.834-1.668,23.5-14.834s-4.834-12.5-4.834-12.5l-1.5,1.334c0,0,10.501-13.831,7.334-20.833l-9,4.331l-6.334-31l-0.269-2.333
		c0,0-18.897-25.667-19.564-25.667S73.386,77.482,73.386,77.482l-9.333,44.833C64.053,122.316,64.445,122.725,62.72,122.482z"/>
	<path fill="#F9EFEF" stroke="#000000" stroke-width="2" stroke-miterlimit="10" d="M69.066,106.313c0,0,0.667,34.667,27.667,34.833
		s36.833-8.001,45.167-19.167c8.333-11.167,1-23.833,1-23.833l-3.167-14.833C139.733,83.313,73.399,31.814,69.066,106.313z"/>
	<path fill="#EC392E" stroke="#000000" stroke-width="2" stroke-miterlimit="10" d="M63.233,118.98c0,0,14.667-12.5,11-25.333
		c0,0,25.167,13,43.833-20.333l1-4.167c0,0,3,26.667,31,22h1.166c0,0-7.999-35-9.166-37S81.9,58.313,73.9,63.647
		s-6.5,4.166-10.667,54.667"/>
	<path fill="#F3EF9F" stroke="#000000" stroke-width="2" stroke-miterlimit="10" d="M49.233,76.48c0,0,116.329-26.76,118.333-28
		c2.333-1.443-43.334-7.833-43.334-7.833l-9-23.167l-46,10.167l3.333,26.115l-25,21.219C47.566,74.98,46.596,77.104,49.233,76.48z"
		/>
	<polygon fill="#136033" stroke="#000000" stroke-width="2" stroke-miterlimit="10" points="123.608,40.67 72.566,53.761 
		71.424,44.808 121.108,32.603 	"/>
	<path fill="#FFFFFF" stroke="#000000" stroke-width="2" stroke-miterlimit="10" d="M82.233,122.312l50.333-7.833
		c0,0,6.333,11.167-17.5,18C91.233,139.313,84.4,125.979,82.233,122.312z"/>
	<path fill="none" stroke="#000000" stroke-width="2" stroke-miterlimit="10" d="M141.214,91.546c0,0,3.834,12.5,9.334,12"/>
	<path fill="#FFFFFF" stroke="#000000" stroke-miterlimit="10" d="M85.65,104.98c0,0,4.483,6,7.367,0
		C95.901,98.98,83.9,99.48,85.65,104.98z"/>
	<path fill="none" stroke="#000000" stroke-miterlimit="10" d="M123.525,100.666c0,0,3.875-8.064,7.75,0"/>
</g>
<g id="Calque_4">
	<path fill="#030500" stroke="#000000" stroke-width="2" stroke-miterlimit="10" d="M35.9,120.23l22.5,125.75c0,0,3,2,6-2.25
		L44.65,118.98C44.65,118.98,35.214,116.397,35.9,120.23z"/>
	<path fill="#B6C1C0" stroke="#000000" stroke-width="2" stroke-miterlimit="10" d="M33.752,106.313l1.169,14.856
		c0,0,8.317,1.793,10.484-2.189l-4.839-15.583l-13-37.425L33.752,106.313z"/>
	<path fill="#B6C1C0" stroke="#000000" stroke-width="2" stroke-miterlimit="10" d="M12.4,68.813
		c-1.333,0.667,8.167,40.667,8.167,40.667s26.833,2.333,34.667-10.833c0,0-11.234-39.143-11.667-38.167
		c-1.141,2.576,6.565,34.833,6.565,34.833s-11.732,11.5-24.899,9.333C25.233,104.646,13.178,68.424,12.4,68.813z"/>
</g>
<g id="Calque_3">
	<path fill="#F9EFEF" stroke="#000000" stroke-width="2" stroke-miterlimit="10" d="M93.297,206.38l-2.272,19.75
		c0,0,8.252,3.5,12.797,0s6.578-22.375,6.578-22.375S98.44,200.005,93.297,206.38z"/>
	<path fill="#F9EFEF" stroke="#000000" stroke-width="2" stroke-miterlimit="10" d="M118.042,201.516l11,25.026l11.75-1.557
		l-3.375-25.625C137.417,199.362,120.134,198.548,118.042,201.516z"/>
	<path fill="#EF612F" stroke="#000000" stroke-width="2" stroke-miterlimit="10" d="M80.041,252.417c-3.243-0.668,6-7,11-7.375
		v-18.5l15.625,1c0,0-5.375,17.875-4.937,18.625s0,5.625,0,5.625S88.541,254.167,80.041,252.417z"/>
	<path fill="#EF612F" stroke="#000000" stroke-width="2" stroke-miterlimit="10" d="M152.731,250.093
		c2.964-0.939-6.233-6.461-10.933-6.408l0.742-22.073l-16.908,4.931c0,0,6.636,18.388,6.297,19.172
		c-0.342,0.783,0.51,5.603,0.51,5.603S144.958,252.56,152.731,250.093z"/>
	<polygon fill="#FEE480" stroke="#000000" stroke-width="2" stroke-miterlimit="10" points="54.525,163.855 91.9,144.355 
		134.275,137.98 155.4,159.105 146.9,172.605 144.65,172.605 140.525,171.105 143.65,157.605 134.025,153.605 136.775,167.48 
		91.9,175.48 90.65,161.855 56.275,170.855 	"/>
	
		<ellipse fill="#F9EFEF" stroke="#000000" stroke-width="2" stroke-miterlimit="10" cx="48.962" cy="169.167" rx="7.688" ry="7.938"/>
	
		<ellipse fill="#F9EFEF" stroke="#000000" stroke-width="2" stroke-miterlimit="10" cx="142.61" cy="181.039" rx="8.21" ry="8.813"/>
	<path fill="#F9EFEF" stroke="#000000" stroke-width="2" stroke-miterlimit="10" d="M103.488,142.612c0,0-1.338,13.118,9.787,10.368
		s9.74-11.311,6.245-12.779L103.488,142.612z"/>
	<path fill="#8C7CB7" stroke="#000000" stroke-width="2" stroke-miterlimit="10" d="M91.695,173.25l-8.17,33.105l65.625-8.625
		l-12.375-30.25C136.775,167.48,117.992,161.642,91.695,173.25z"/>
	<polygon fill="#57B751" stroke="#000000" stroke-width="2" stroke-miterlimit="10" points="94.407,143.982 95.546,178.23 
		100.712,177.105 99.508,143.21 	"/>
	<polygon fill="#57B751" stroke="#000000" stroke-width="2" stroke-miterlimit="10" points="123.889,139.401 125.029,173.649 
		130.195,172.524 128.992,138.63 	"/>
	<circle fill="none" stroke="#000000" stroke-width="2" stroke-miterlimit="10" cx="98.9" cy="179.23" r="3.875"/>
	<circle fill="none" stroke="#000000" stroke-width="2" stroke-miterlimit="10" cx="127.4" cy="175.48" r="3.875"/>
</g>
</svg>
