<?xml version="1.0" encoding="utf-8"?>
<!-- Generator: Adobe Illustrator 15.1.0, SVG Export Plug-In . SVG Version: 6.00 Build 0)  -->
<!DOCTYPE svg PUBLIC "-//W3C//DTD SVG 1.1//EN" "http://www.w3.org/Graphics/SVG/1.1/DTD/svg11.dtd">
<svg version="1.1" xmlns="http://www.w3.org/2000/svg" xmlns:xlink="http://www.w3.org/1999/xlink" x="0px" y="0px" width="208.8px"
	 height="264.96px" viewBox="0 0 208.8 264.96" enable-background="new 0 0 208.8 264.96" xml:space="preserve">
<g id="Calque_2">
	<path fill="#787878" stroke="#000000" stroke-miterlimit="10" d="M69.4,25.813l46.5-10.5l3.666,13.667c0,0,0.272,1.104,0.834,1.333
		S71.734,42.647,71.734,42.647l-2.333-16l3.5,25.167l51.333-12.5c0,0-2.021-8.583-1.896-9.021"/>
	<path fill="none" stroke="#000000" stroke-miterlimit="10" d="M120.837,30.292c-0.062,0,1.188,0,1.188,0h0.688l-2.823,0.214"/>
	<polyline fill="#F3901A" stroke="#000000" stroke-miterlimit="10" points="124.234,39.313 169.4,46.105 141.796,52.401 
		105.275,60.73 48.15,74.355 72.275,51.813 73.538,51.658 	"/>
	<path fill="#FFFFFF" stroke="#000000" stroke-miterlimit="10" d="M81.525,106.542c-0.637-6.095,5.812-4,5.812-0.812
		S81.962,110.73,81.525,106.542z"/>
	<ellipse fill="#FFFFFF" stroke="#000000" stroke-miterlimit="10" cx="133.04" cy="101.482" rx="2.408" ry="2.625"/>
	<path fill="none" stroke="#000000" stroke-miterlimit="10" d="M64.536,70.292v46.021c0,0,2.277-3.182,4.709-7.328
		c3.718-6.334,7.799-14.917,4.676-17.839c-5.167-4.833,30.833,15,44.333-23.333c0,0,4.833,26.167,31,21.5l-8.104-36.913
		l16.104,68.746l7.5-4.833c0,0,4,7.5-4.5,19.5c0,0,11.334,18.5-3.5,24.334l-17.833,4.666c-10,9.166-55.157,3.334-55.157,3.334
		s-33.676-17.334-23.176-33.168c0,0-14.5-9.166-9-18.5c0,0,7.333-1.667,10.667,2.167s2.458-3.583,2.458-3.583"/>
	<path fill="none" stroke="#000000" stroke-miterlimit="10" d="M139.577,89.532c0,0,1.311,4.351,4.03,7.126
		c0.166,0.17,0.338,0.334,0.515,0.491c1.36,1.203,3.033,1.977,5.028,1.708"/>
	<path fill="none" stroke="#000000" stroke-miterlimit="10" d="M69.89,108.986c0,0,0.885,38.119,40.635,30.744
		c0,0,25.875-4.25,35-25.5c0,0,0.417-14.34-1.918-17.572"/>
	<path fill="#FFFFFF" stroke="#000000" stroke-miterlimit="10" d="M133.04,112.355c0,0,2.905,15.735-22.515,20.125
		c0,0-24.625,3.375-27.625-12.625L133.04,112.355z"/>
	<polyline fill="#787878" stroke="#000000" stroke-miterlimit="10" points="69.4,26.871 69.456,25.801 70.115,25.652 	"/>
</g>
<g id="Calque_3">
	<path fill="none" stroke="#000000" stroke-miterlimit="10" d="M147.087,172.667l-6.875,1.188l3.625-15.562l-9.438-4.312l2.5,13
		l9,21.25c6.75-1.25,4.5-5,5.5-7.75s-4-8-4-8l8.75-13l-23-20.75l-38.822,5.581l-1.178,0.169l-38.704,19.991"/>
	<circle fill="none" stroke="#000000" stroke-miterlimit="10" cx="48.317" cy="168.647" r="7.417"/>
	<polyline fill="none" stroke="#000000" stroke-miterlimit="10" points="55.733,170.897 90.566,161.23 91.733,173.063 
		91.567,173.772 83.983,205.98 149.817,198.313 145.9,188.23 	"/>
	<path fill="none" stroke="#000000" stroke-miterlimit="10" d="M94.4,173.48"/>
	<ellipse fill="#E52420" stroke="#000000" stroke-miterlimit="10" cx="98.462" cy="179.73" rx="2.688" ry="3.125"/>
	<ellipse fill="#E52420" stroke="#000000" stroke-miterlimit="10" cx="127.775" cy="175.23" rx="2.688" ry="3.062"/>
	<line fill="none" stroke="#000000" stroke-miterlimit="10" x1="94.4" y1="144.855" x2="96.775" y2="176.605"/>
	<polyline fill="none" stroke="#000000" stroke-miterlimit="10" points="99.204,143.61 100.062,173.482 100.172,177.337 	"/>
	<line fill="none" stroke="#000000" stroke-miterlimit="10" x1="123.585" y1="140.105" x2="126.576" y2="172.492"/>
	<line fill="none" stroke="#000000" stroke-miterlimit="10" x1="128.793" y1="139.356" x2="128.973" y2="172.492"/>
	<path fill="none" stroke="#000000" stroke-miterlimit="10" d="M103.775,143.61c0,0,0.375,12.245,9.625,9.87s9.25-11.855,7.5-12.803
		"/>
	<line fill="none" stroke="#000000" stroke-miterlimit="10" x1="92.15" y1="173.48" x2="96.541" y2="173.48"/>
	<path fill="none" stroke="#000000" stroke-miterlimit="10" d="M126.343,169.975"/>
	<line fill="none" stroke="#000000" stroke-miterlimit="10" x1="100.062" y1="173.482" x2="126.343" y2="169.975"/>
	<line fill="none" stroke="#000000" stroke-miterlimit="10" x1="129.275" y1="169.636" x2="136.9" y2="166.98"/>
	<polyline fill="none" stroke="#000000" stroke-miterlimit="10" points="109.512,203.007 103.775,222.647 91.066,221.98 
		93.041,204.925 	"/>
	<polyline fill="none" stroke="#000000" stroke-miterlimit="10" points="118.854,201.919 127.775,222.647 139.577,218.813 
		136.9,199.817 	"/>
	<polygon fill="none" stroke="#000000" stroke-miterlimit="10" points="89.733,222.647 105.9,222.647 101.899,238.481 
		101.15,247.814 79.233,247.814 89.733,240.814 	"/>
	<polygon fill="none" stroke="#000000" stroke-miterlimit="10" points="125.081,224.314 142.233,218.814 141.4,241.314 
		152.566,247.814 131.4,247.814 	"/>
	<polyline fill="#89421D" stroke="#000000" stroke-miterlimit="10" points="51.733,175.23 63.899,244.148 57.816,246.148 
		46.518,175.834 	"/>
	<polyline fill="#89421D" stroke="#000000" stroke-miterlimit="10" points="44.11,162.542 36.732,121.814 43.398,120.147 
		49.232,160.73 	"/>
	<polygon fill="#D1DBDA" stroke="#000000" stroke-miterlimit="10" points="33.851,122.566 45.351,119.48 42.768,107.147 
		32.184,109.98 	"/>
	<path fill="#D1DBDA" stroke="#000000" stroke-miterlimit="10" d="M32.398,109.98l-12.333-0.994L12.4,68.98l12.417,35.127
		c0,0,9.583,1.441,10.417-1.468s-7.667-38.742-7.667-38.742L40.15,99.98l0.833,1.501c0,0,10.083-2.687,10.333-7.261
		S43.4,60.397,43.4,60.397L55.817,98.23l-12.758,9.287"/>
</g>
</svg>
